<?xml version="1.0" standalone="no"?>
<!DOCTYPE svg PUBLIC "-//W3C//DTD SVG 20010904//EN"
 "http://www.w3.org/TR/2001/REC-SVG-20010904/DTD/svg10.dtd">
<svg version="1.0" xmlns="http://www.w3.org/2000/svg"
 width="433.000000pt" height="577.000000pt" viewBox="0 0 433.000000 577.000000"
 preserveAspectRatio="xMidYMid meet">
<metadata>
Created by potrace 1.16, written by Peter Selinger 2001-2019
</metadata>
<g transform="translate(0.000000,577.000000) scale(0.100000,-0.100000)"
fill="#000000" stroke="none">
<path d="M2855 4330 c-11 -5 -54 -9 -96 -9 -125 -1 -218 -58 -273 -166 l-23
-46 -72 -3 c-39 -2 -74 1 -77 6 -3 5 -23 20 -45 34 -23 14 -39 32 -39 43 0 45
-82 93 -123 73 -27 -13 -146 -42 -173 -42 -10 0 -32 -7 -48 -15 -33 -18 -53
-19 -58 -4 -6 17 -57 -8 -69 -34 -6 -13 -28 -32 -50 -41 -21 -10 -44 -26 -49
-37 -6 -10 -15 -19 -20 -19 -5 0 -26 -11 -46 -25 -20 -14 -40 -23 -44 -20 -4
2 -26 -4 -48 -15 -23 -11 -45 -20 -50 -20 -6 0 -12 -7 -16 -15 -3 -8 -14 -15
-24 -15 -10 0 -23 -5 -30 -12 -8 -8 -18 -9 -34 -1 -88 40 -96 42 -130 31 -18
-6 -38 -12 -45 -14 -6 -1 -9 -12 -6 -22 8 -31 -33 -39 -67 -14 -27 20 -27 20
-70 1 -44 -20 -203 -173 -221 -214 -5 -11 -13 -27 -18 -35 -31 -53 -34 -71
-27 -180 l7 -110 -33 0 c-37 0 -59 -15 -52 -35 3 -7 1 -16 -5 -20 -6 -3 -11
-19 -11 -36 0 -19 -12 -42 -36 -69 -35 -39 -36 -41 -20 -65 18 -27 14 -61 -9
-80 -7 -5 -15 -35 -18 -67 -6 -64 11 -105 69 -171 19 -20 34 -39 34 -41 0 -2
-7 -22 -15 -45 -14 -41 -13 -45 11 -94 15 -29 32 -59 39 -67 28 -34 23 -98
-10 -140 -12 -16 -33 -84 -33 -110 0 -8 -3 -37 -8 -63 -6 -44 -5 -49 15 -54
24 -6 26 -20 6 -47 -26 -34 2 -102 37 -92 16 4 18 0 14 -22 -15 -76 -17 -120
-7 -126 6 -4 11 -20 11 -35 0 -16 7 -35 17 -42 9 -8 22 -29 30 -46 8 -20 23
-35 38 -39 30 -8 31 -14 4 -37 -22 -20 -21 -44 3 -39 8 1 23 -7 34 -19 15 -16
21 -47 29 -153 8 -94 17 -145 32 -176 41 -90 80 -186 86 -211 4 -14 18 -31 32
-37 14 -6 25 -16 25 -22 0 -13 -14 -19 -108 -40 -71 -17 -73 -18 -34 -19 24
-1 52 4 63 10 11 5 81 19 157 30 75 11 152 24 169 30 38 12 73 4 73 -17 0 -8
10 -14 26 -14 19 0 25 -4 20 -15 -3 -8 -8 -21 -11 -28 -8 -19 31 -61 50 -53
14 5 20 -9 16 -41 -1 -7 3 -22 9 -34 18 -33 38 -263 34 -399 -2 -101 -1 -115
7 -75 9 46 9 107 5 400 -1 115 7 162 24 135 7 -10 10 -11 10 -3 0 9 14 12 40
11 22 -1 40 -5 40 -11 0 -5 10 -23 23 -40 23 -32 56 -89 83 -147 9 -19 31 -56
50 -81 18 -25 31 -49 27 -53 -3 -3 -2 -6 4 -6 6 0 13 -10 17 -23 4 -16 8 -19
14 -9 7 10 11 10 22 -3 10 -12 10 -15 -4 -15 -16 0 -16 -1 -2 -16 9 -8 16 -20
16 -25 0 -5 9 -9 19 -9 11 0 26 -6 33 -13 18 -17 108 -21 143 -6 17 7 36 11
44 10 7 -1 10 2 7 8 -13 20 31 30 102 24 62 -5 199 13 188 25 -5 5 32 42 42
42 32 1 201 190 202 226 0 6 7 17 15 24 16 13 38 57 50 98 3 12 11 22 16 22 5
0 9 4 9 10 0 5 17 28 38 51 30 32 44 40 59 35 29 -9 33 -35 27 -158 -5 -119 3
-137 43 -94 13 15 29 23 35 20 7 -5 9 -1 5 9 -3 9 -2 19 3 22 4 3 11 -1 13 -7
4 -10 6 -10 6 0 1 6 10 12 22 12 19 0 19 -1 5 -22 -21 -29 -20 -38 3 -38 20 0
103 74 99 88 -2 5 13 25 32 45 29 31 40 37 65 32 30 -5 30 -5 -5 12 -19 10
-36 18 -38 19 -2 1 5 18 15 38 14 30 21 36 38 31 11 -4 43 -9 71 -12 47 -5 52
-3 72 23 12 16 27 34 33 39 53 49 59 59 59 102 0 24 5 54 12 66 7 12 11 48 9
80 -1 34 3 64 10 73 14 17 80 18 126 2 44 -16 63 0 41 34 -21 32 -30 98 -14
98 6 0 36 -16 66 -35 63 -40 113 -46 130 -15 6 10 13 40 17 65 4 35 2 50 -11
64 -9 10 -20 36 -23 57 -3 22 -10 47 -15 56 -5 11 -4 25 4 39 10 17 10 23 1
26 -17 6 -16 48 1 62 20 17 31 118 15 137 -10 13 -10 17 2 25 8 5 21 8 29 8
50 -4 52 17 13 104 -20 44 -24 62 -15 65 7 2 19 18 26 36 9 22 25 37 47 45 19
7 57 24 85 38 l52 24 25 92 c21 75 24 102 17 147 -4 30 -4 62 0 70 14 28 32
211 25 253 -12 72 -96 202 -126 194 -9 -3 -24 4 -33 14 -9 11 -22 19 -30 19
-24 0 -36 26 -38 76 0 41 -12 92 -44 206 -3 9 -14 20 -24 23 -25 8 -110 92
-110 109 0 7 -22 27 -49 45 -36 23 -57 30 -74 25 -41 -10 -96 29 -97 69 0 10
-4 15 -10 12 -5 -3 -12 6 -16 20 -3 14 -16 33 -28 43 -21 18 -33 34 -62 86 -9
16 -25 39 -36 50 -11 12 -27 35 -35 51 -8 17 -24 40 -35 51 -11 13 -20 39 -22
60 -1 30 -7 40 -21 42 -11 2 -27 10 -35 17 -27 23 -108 64 -114 58 -3 -4 -6
-2 -6 4 0 12 -44 33 -70 33 -11 0 -40 16 -66 35 -46 36 -86 43 -129 25z m-480
-550 c19 0 23 -4 18 -17 -5 -12 -3 -14 8 -8 18 12 61 10 134 -5 64 -13 87 -17
150 -24 50 -5 115 -35 115 -53 0 -7 3 -12 8 -11 21 7 59 -42 75 -97 21 -70 36
-103 56 -128 12 -14 13 -28 4 -75 -6 -31 -9 -73 -7 -92 11 -108 22 -125 73
-110 29 8 33 6 51 -23 11 -18 15 -33 10 -35 -6 -2 -6 -10 0 -22 6 -12 7 -28 1
-43 -6 -14 -8 -27 -6 -29 3 -2 6 -19 7 -37 1 -18 6 -35 10 -37 4 -3 8 -19 8
-36 0 -27 -3 -30 -22 -23 -13 3 -40 11 -62 16 -21 5 -47 14 -56 19 -10 6 -32
7 -49 4 -29 -6 -30 -8 -14 -21 10 -8 -1 -5 -23 6 -23 11 -44 18 -47 15 -3 -3
-40 -5 -83 -5 -99 0 -215 -28 -229 -56 -6 -11 -18 -27 -28 -37 -9 -10 -15 -22
-11 -27 3 -6 1 -15 -4 -22 -5 -7 -12 -36 -15 -65 -5 -47 -4 -52 8 -42 13 10
15 8 15 -14 0 -14 1 -26 3 -26 2 0 25 11 53 24 60 29 75 23 38 -15 -20 -21
-25 -32 -17 -40 7 -7 14 -6 24 3 13 13 81 48 93 48 3 0 10 -17 16 -37 15 -55
21 -61 67 -69 38 -6 45 -3 73 24 16 17 30 40 30 51 0 12 4 21 8 21 13 0 32
-23 32 -37 0 -7 12 -31 26 -53 21 -32 29 -37 47 -31 12 5 23 17 25 29 2 15 12
21 40 24 78 9 94 -6 107 -107 9 -67 32 -154 45 -170 10 -12 15 -76 11 -158 -1
-34 -3 -37 -21 -27 -14 7 -20 7 -20 0 0 -5 5 -10 10 -10 6 0 10 -9 10 -20 0
-11 -5 -20 -11 -20 -5 0 -7 -5 -4 -10 4 -6 3 -10 -2 -9 -17 3 -33 -1 -32 -8 4
-22 -3 -33 -20 -33 -23 0 -35 -15 -25 -31 4 -8 9 -7 15 2 6 10 9 10 9 2 0 -7
-9 -17 -19 -23 -11 -5 -28 -24 -38 -40 -9 -17 -23 -30 -30 -30 -16 0 -17 -16
-2 -26 8 -5 6 -10 -5 -16 -9 -5 -16 -15 -16 -23 0 -8 -7 -18 -15 -22 -8 -5
-17 -26 -20 -48 -2 -22 -9 -41 -15 -43 -5 -2 -10 -8 -10 -13 0 -6 5 -7 10 -4
15 9 12 -12 -3 -27 -8 -7 -12 -21 -9 -32 3 -12 1 -17 -7 -15 -7 3 -12 8 -12
12 2 12 -23 35 -31 30 -7 -4 -12 20 -9 39 0 5 -5 8 -13 8 -8 0 -18 10 -22 22
-7 22 -42 57 -58 58 -5 0 -14 7 -20 16 -6 8 -19 16 -29 18 -9 1 -27 12 -40 24
-21 20 -34 25 -83 36 -7 1 -20 8 -29 16 -14 12 -15 15 -2 25 8 5 17 19 20 30
3 11 8 29 11 41 6 18 3 20 -24 16 -27 -4 -30 -2 -30 22 0 14 -5 26 -10 26 -13
0 -83 -35 -130 -65 -67 -44 -142 -40 -181 9 -11 13 -36 35 -55 47 l-37 22 -17
-23 c-14 -19 -24 -22 -64 -18 l-48 3 6 -35 c3 -19 13 -41 23 -47 9 -7 11 -13
5 -13 -7 0 -12 -7 -12 -16 0 -8 -4 -13 -8 -10 -5 3 -20 -1 -35 -9 -15 -8 -27
-11 -27 -7 0 4 -5 -1 -11 -12 -9 -14 -13 -15 -19 -5 -7 10 -11 10 -24 0 -9 -8
-16 -10 -16 -5 0 5 -5 2 -10 -6 -7 -11 -12 -12 -20 -4 -12 12 -53 7 -45 -5 2
-4 -2 -8 -10 -8 -8 0 -15 6 -15 14 0 10 -9 7 -30 -9 -16 -12 -30 -25 -30 -29
0 -3 -16 -24 -35 -45 -20 -21 -39 -50 -42 -64 -10 -41 -22 -51 -42 -33 -15 12
-18 29 -17 84 1 53 -2 70 -13 74 -14 5 -14 7 -1 15 8 6 11 10 6 10 -6 0 -1 6
10 14 10 8 16 17 13 20 -3 3 -14 -2 -25 -12 -25 -24 -44 -17 -44 14 0 16 -4
23 -11 18 -7 -4 -10 -1 -7 7 3 8 -2 19 -11 25 -13 10 -13 14 -1 30 14 16 13
17 -2 11 -12 -4 -18 -2 -18 8 0 8 -4 15 -10 15 -6 0 -6 9 -1 23 7 18 6 24 -4
24 -8 0 -12 -4 -9 -9 3 -4 -2 -5 -10 -2 -8 3 -12 12 -9 20 4 10 0 12 -11 8 -9
-3 -16 -1 -16 5 0 6 6 11 14 11 7 0 20 8 27 17 12 15 12 16 -3 10 -10 -3 -18
-2 -18 3 0 6 -3 9 -7 8 -5 -2 -10 2 -12 7 -2 6 -7 20 -12 33 -5 12 -5 22 -1
22 4 0 7 55 6 122 0 68 3 138 8 158 5 19 10 54 12 77 3 45 29 93 50 93 8 0 16
5 18 11 3 9 9 9 25 0 12 -6 38 -12 58 -13 31 -3 37 -7 42 -31 3 -15 9 -30 14
-32 13 -8 66 29 62 43 -3 6 0 12 5 12 6 0 14 9 17 20 3 11 15 25 25 30 16 8
18 7 14 -4 -8 -21 23 -76 49 -85 29 -11 88 4 105 26 7 10 16 30 19 46 3 15 9
27 12 27 4 0 25 -13 47 -28 21 -16 47 -32 56 -35 30 -11 31 14 2 44 -35 36
-15 38 44 4 23 -13 42 -20 42 -15 0 6 10 6 24 0 19 -7 26 -5 30 6 10 27 7 73
-9 110 -8 20 -13 40 -10 44 3 5 -3 17 -13 27 -11 10 -22 25 -25 33 -4 12 -6
11 -6 -2 -1 -24 -18 -23 -33 2 -7 11 -18 20 -25 20 -6 0 -28 9 -47 21 -47 27
-216 37 -240 14 -8 -8 -20 -15 -26 -15 -7 0 -2 9 11 20 l24 20 -30 -11 c-16
-6 -46 -8 -67 -5 -32 5 -39 2 -61 -24 -18 -21 -27 -26 -31 -15 -2 7 0 16 7 18
7 2 0 3 -15 1 -42 -5 -51 16 -26 67 12 24 25 46 29 49 4 3 10 22 14 42 15 78
38 125 118 236 26 37 50 78 53 92 2 14 9 39 14 56 6 17 10 44 10 60 0 17 4 34
9 39 14 16 25 59 12 51 -12 -8 -7 12 12 52 13 26 62 56 77 47 6 -4 13 1 16 9
4 11 19 15 55 14 27 0 55 5 63 11 9 7 17 8 20 2 8 -13 46 -1 46 14 0 8 14 16
30 20 17 4 30 10 30 15 0 11 84 9 91 -3 4 -5 15 2 25 15 l19 25 18 -24 c10
-12 29 -23 42 -23z m-552 -2144 c10 3 33 3 52 0 26 -5 36 -13 41 -32 4 -14 8
-23 11 -21 2 3 28 -4 56 -15 61 -23 76 -25 142 -14 28 4 52 7 54 6 2 -1 7 4
11 10 13 21 189 11 217 -12 7 -5 25 -7 42 -3 24 5 30 2 36 -14 7 -23 17 -26
46 -11 10 6 19 7 19 2 0 -10 36 -9 46 1 4 4 17 7 28 7 12 0 27 9 34 21 8 12
21 19 35 17 12 -1 27 1 34 5 6 4 14 3 18 -3 4 -6 11 -8 16 -5 5 4 9 1 9 -6 0
-6 14 -34 30 -61 17 -26 30 -57 30 -67 0 -11 5 -21 10 -23 7 -2 6 -16 -4 -39
-8 -20 -12 -39 -9 -43 4 -3 1 -6 -5 -6 -7 0 -12 -5 -12 -11 0 -18 -28 -39 -43
-33 -8 3 -17 -2 -21 -13 -4 -10 -2 -19 4 -21 8 -3 8 -8 -1 -18 -6 -8 -9 -23
-6 -35 5 -17 2 -20 -14 -16 -14 4 -23 -3 -34 -24 -16 -29 -38 -38 -50 -19 -3
6 -11 10 -16 10 -6 0 -7 -4 -4 -10 3 -5 1 -19 -5 -30 -8 -15 -8 -20 1 -20 12
0 4 -14 -9 -16 -32 -7 -52 -19 -52 -33 -1 -14 -2 -14 -14 2 -16 21 -23 22 -23
2 0 -8 4 -15 9 -15 4 0 8 -4 8 -10 0 -5 -7 -10 -15 -10 -8 0 -16 5 -16 10 -1
6 -2 15 -3 22 0 6 -7 13 -15 16 -8 3 -11 0 -7 -6 7 -12 -13 -62 -26 -62 -4 0
-9 -12 -9 -27 -2 -27 -2 -27 -6 -3 -3 13 -12 30 -21 36 -9 7 -17 23 -17 36 -1
13 -4 28 -7 34 -3 5 -8 21 -12 37 -6 24 -3 27 18 27 13 0 38 -14 56 -32 29
-29 32 -30 27 -10 -3 14 -1 20 6 15 6 -4 8 2 4 16 -7 29 2 53 16 44 6 -3 3 4
-6 18 -9 13 -17 35 -17 49 1 23 2 24 14 8 7 -10 17 -18 21 -18 4 0 2 7 -5 15
-7 8 -10 25 -6 40 5 21 9 23 20 13 12 -11 11 -14 -2 -19 -9 -3 -12 -8 -5 -12
5 -3 21 5 34 19 20 21 22 27 9 34 -8 5 -24 15 -35 24 -19 15 -19 15 5 10 22
-4 22 -3 -5 10 -16 9 -24 15 -18 16 10 0 10 6 1 25 -11 26 -28 34 -28 14 0 -6
-7 -8 -16 -5 -9 3 -21 3 -27 -1 -17 -11 -121 -11 -128 -1 -3 5 -55 11 -115 14
-140 6 -134 5 -134 23 0 11 -3 10 -15 -5 -11 -14 -14 -15 -15 -4 0 13 -2 13
-9 1 -5 -8 -5 -26 1 -44 7 -19 7 -40 1 -61 -10 -31 -9 -32 17 -28 22 3 29 -1
39 -25 15 -37 36 -72 51 -86 10 -9 11 -7 5 11 -4 14 -2 22 5 22 8 0 10 -11 6
-35 -5 -27 -4 -35 8 -35 8 0 17 -6 20 -12 3 -7 4 -4 2 7 -10 46 -15 89 -10 78
11 -25 23 -13 14 13 -6 14 -10 26 -10 28 0 1 9 2 20 3 16 1 20 -4 20 -33 0
-21 4 -33 10 -29 6 4 7 -1 3 -11 -3 -10 -2 -15 3 -12 5 4 10 -15 12 -40 3 -52
6 -57 42 -66 14 -3 19 -3 13 0 -7 3 -13 18 -14 32 0 26 -1 26 -9 5 -14 -35
-20 -28 -20 22 0 25 4 45 10 45 14 0 37 -52 33 -75 -1 -11 0 -14 3 -7 10 21
32 13 43 -15 10 -25 11 -25 6 -3 -3 14 -7 30 -8 36 -2 6 -10 19 -20 28 -9 10
-17 26 -17 36 0 10 -6 21 -12 23 -9 4 -8 6 2 6 8 1 26 -12 40 -28 13 -17 27
-28 32 -25 4 3 8 1 8 -5 0 -5 -5 -11 -11 -13 -9 -3 -9 -9 -1 -25 6 -11 9 -30
7 -42 -2 -11 0 -21 6 -21 5 0 8 -3 7 -7 -1 -5 2 -20 6 -35 6 -20 3 -31 -13
-47 -21 -21 -21 -21 -21 -1 0 22 -15 27 -23 8 -3 -8 -6 -5 -6 6 -1 15 -4 16
-16 6 -13 -11 -16 -8 -21 19 -5 25 -9 29 -20 20 -10 -8 -14 -8 -14 0 0 18 -21
12 -40 -11 l-18 -23 -9 35 -9 35 -7 -42 c-4 -24 -12 -43 -18 -43 -7 0 -9 12
-6 33 5 28 5 29 -5 10 -10 -21 -12 -22 -24 -5 -9 10 -17 13 -21 7 -15 -19 -33
-15 -34 7 0 13 -3 17 -6 11 -9 -23 -25 -14 -17 10 l7 22 -23 -20 -23 -20 5 23
c7 26 -9 29 -28 5 -8 -11 -13 -13 -14 -6 0 20 -42 63 -53 56 -6 -3 -7 -1 -3 6
6 9 11 9 22 0 8 -7 14 -7 14 -1 0 12 -28 24 -40 17 -5 -3 -12 0 -16 6 -4 8 -9
7 -16 -2 -7 -11 -9 -11 -7 1 4 36 0 43 -16 30 -12 -10 -15 -10 -15 3 0 11 -6
14 -17 10 -15 -5 -15 -3 2 11 20 17 20 17 -2 13 -24 -5 -32 8 -10 16 6 3 1 6
-12 6 -24 1 -24 1 -5 16 11 8 14 15 7 15 -8 0 -13 13 -13 30 0 18 -5 30 -13
30 -8 0 -14 7 -14 15 0 8 4 15 9 15 4 0 8 4 8 10 0 10 -32 2 -40 -11 -10 -15
-28 6 -31 36 -2 17 -8 33 -13 37 -5 3 -11 33 -14 65 -3 49 -1 62 18 83 12 14
28 24 36 22 8 -2 13 1 12 6 -4 13 46 59 53 49 3 -4 13 -5 22 -1z"/>
</g>
</svg>
